<?xml version="1.0" encoding="UTF-8"?>
<svg width="11" height="16.75" version="1.1" viewBox="0 0 11 16.75" xmlns="http://www.w3.org/2000/svg" xmlns:cc="http://creativecommons.org/ns#" xmlns:dc="http://purl.org/dc/elements/1.1/" xmlns:rdf="http://www.w3.org/1999/02/22-rdf-syntax-ns#">
 <metadata>
  <rdf:RDF>
   <cc:Work rdf:about="">
    <dc:format>image/svg+xml</dc:format>
    <dc:type rdf:resource="http://purl.org/dc/dcmitype/StillImage"/>
    <dc:title>Primary_Textlink_Kurs_verschenken</dc:title>
   </cc:Work>
  </rdf:RDF>
 </metadata>
<!-- Generator: Sketch 50.2 (55047) - http://www.bohemiancoding.com/sketch -->
 <title>Primary_Textlink_Kurs_verschenken</title>
 <desc>Created with Sketch.</desc>
 <g id="Primary_Textlink_Kurs_verschenken" transform="translate(-11,-8.25)" fill="none" fill-rule="evenodd">
  <g id="Group">
   <g transform="translate(11,9)">
    <rect x=".75" y="5.75" width="9.5" height="9.5" stroke="#102f37" stroke-width="1.5"/>
    <polygon points="4.7 15.456 4.7 6 6.2 6 6.2 15.456" fill="#102f37" fill-rule="nonzero"/>
    <path id="Combined-Shape" d="m4.3 1.75v1.75h-1.75c-0.9665 0-1.75-0.7835-1.75-1.75 0-0.9665 0.7835-1.75 1.75-1.75s1.75 0.7835 1.75 1.75z" stroke="#102f37" stroke-width="1.5"/>
    <path transform="matrix(-1,0,0,1,16.5,0)" d="m10 1.75v1.75h-1.75c-0.9665 0-1.75-0.7835-1.75-1.75 0-0.9665 0.7835-1.75 1.75-1.75s1.75 0.7835 1.75 1.75z" stroke="#102f37" stroke-width="1.5"/>
   </g>
  </g>
 </g>
</svg>
