<?xml version="1.0" encoding="UTF-8"?>
<svg width="35px" height="35px" viewBox="0 0 35 35" version="1.1" xmlns="http://www.w3.org/2000/svg" xmlns:xlink="http://www.w3.org/1999/xlink">
    <!-- Generator: Sketch 52.4 (67378) - http://www.bohemiancoding.com/sketch -->
    <title>youtube</title>
    <desc>Created with Sketch.</desc>
    <defs>
        <linearGradient x1="0%" y1="0%" x2="100%" y2="100%" id="linearGradient-1">
        </linearGradient>
    </defs>
    <g id="youtube" stroke="none" stroke-width="1" fill="none" fill-rule="evenodd">
        <circle id="Oval" fill="url(#linearGradient-1)" cx="17.5" cy="17.5" r="16.5"></circle>
        <g id="Group" transform="translate(18.000000, 17.500000) scale(1, -1) translate(-18.000000, -17.500000) translate(10.000000, 12.000000)" fill="#FFFFFF">
            <path d="M15.6704449,1.72117647 C16.0131123,2.95058824 15.9999328,5.51294118 15.9999328,5.51294118 C15.9999328,5.51294118 15.9999328,8.06235294 15.6704449,9.29176471 C15.4859316,9.96470588 14.9455715,10.4952941 14.2602366,10.6764706 C13.0081826,11 7.99996638,11 7.99996638,11 C7.99996638,11 3.00492971,11 1.73969615,10.6635294 C1.0543613,10.4823529 0.514001135,9.95176471 0.329487907,9.27882353 C5.90638649e-13,8.06235294 5.90638649e-13,5.5 5.90638649e-13,5.5 C5.90638649e-13,5.5 5.90638649e-13,2.95058824 0.329487907,1.72117647 C0.514001135,1.04823529 1.06754082,0.504705882 1.73969615,0.323529412 C2.99175019,0 7.99996638,0 7.99996638,0 C7.99996638,0 13.0081826,0 14.2602366,0.336470588 C14.9455715,0.517647059 15.4859316,1.04823529 15.6704449,1.72117647 Z M6.40524491,7.85529412 L10.5699721,5.5 L6.40524491,3.14470588 L6.40524491,7.85529412 Z" id="Combined-Shape"></path>
        </g>
    </g>
</svg>